<svg version="1.2" xmlns="http://www.w3.org/2000/svg" viewBox="0 0 256 256" width="256" height="256">
	<title>Proyecto nuevo</title>
	<style>
		.s0 { fill: #d35400 } 
	</style>
	<path id="Forma 1" class="s0" d="m9 29c0-5.5 4.5-10 10-10h17c5.5 0 10 4.5 10 10v198c0 5.5-4.5 10-10 10h-17c-5.5 0-10-4.5-10-10zm40 61c0-5.5 4.5-10 10-10h17c5.5 0 10 4.5 10 10v137c0 5.5-4.5 10-10 10h-17c-5.5 0-10-4.5-10-10zm40 102c0-5.5 4.5-10 10-10h17c5.5 0 10 4.5 10 10v35c0 5.5-4.5 10-10 10h-17c-5.5 0-10-4.5-10-10zm40-140c0-5.5 4.5-10 10-10h17c5.5 0 10 4.5 10 10v175c0 5.5-4.5 10-10 10h-17c-5.5 0-10-4.5-10-10zm40-7c0-5.5 4.5-10 10-10h17c5.5 0 10 4.5 10 10v182c0 5.5-4.5 10-10 10h-17c-5.5 0-10-4.5-10-10zm40 78c0-5.5 4.5-10 10-10h17c5.5 0 10 4.5 10 10v104c0 5.5-4.5 10-10 10h-17c-5.5 0-10-4.5-10-10z"/>
</svg>