<svg version="1.2" xmlns="http://www.w3.org/2000/svg" viewBox="0 0 256 256" width="256" height="256">
	<title>Proyecto nuevo</title>
	<defs>
		<clipPath clipPathUnits="userSpaceOnUse" id="cp1">
			<path d="m17 128.33c0-61.48 49.85-111.33 111.33-111.33 61.49 0 111.34 49.85 111.34 111.33 0 61.49-49.85 111.34-111.34 111.34-61.48 0-111.33-49.85-111.33-111.34z"/>
		</clipPath>
	</defs>
	<style>
		.s0 { fill: #2b2b2b } 
		.s1 { fill: #d35400 } 
		.s2 { fill: #e57300 } 
	</style>
	<path id="Forma 2" class="s0" d="m0 128c0-70.7 57.3-128 128-128 70.7 0 128 57.3 128 128 0 70.7-57.3 128-128 128-70.7 0-128-57.3-128-128z"/>
	<g clip-path="url(#cp1)">
		<path id="Forma 3" class="s1" d="m17 128.3c0-61.5 49.8-111.3 111.3-111.3 61.5 0 111.4 49.8 111.4 111.3 0 61.5-49.9 111.4-111.4 111.4-61.5 0-111.3-49.9-111.3-111.4z"/>
		<path id="Capa 1" class="s2" d="m13 133h120l-48-119-48 21-30 89"/>
	</g>
</svg>